<mxfile host="65bd71144e" modified="2020-11-16T18:10:07.672Z" agent="5.0 (Windows NT 10.0; Win64; x64) AppleWebKit/537.36 (KHTML, like Gecko) Code/1.51.1 Chrome/83.0.4103.122 Electron/9.3.3 Safari/537.36" etag="l_RQ39n9dpYyHWbqlGAr" version="13.6.5">
    <diagram id="x_Ia-wm0eNurBNk0th-F" name="Page-1">
        <mxGraphModel dx="927" dy="478" grid="1" gridSize="10" guides="1" tooltips="1" connect="1" arrows="1" fold="1" page="1" pageScale="1" pageWidth="850" pageHeight="1100" math="0" shadow="0">
            <root>
                <mxCell id="0"/>
                <mxCell id="1" parent="0"/>
                <mxCell id="BdQd1i3lk0m6pX4wLUbh-5" value="Customer" style="swimlane;fontStyle=1;align=center;verticalAlign=top;childLayout=stackLayout;horizontal=1;startSize=26;horizontalStack=0;resizeParent=1;resizeParentMax=0;resizeLast=0;collapsible=1;marginBottom=0;" parent="1" vertex="1">
                    <mxGeometry x="310" y="40" width="290" height="300" as="geometry"/>
                </mxCell>
                <mxCell id="BdQd1i3lk0m6pX4wLUbh-6" value="- customerID : int&#10;- firstName : String&#10;- lastName : String&#10;- dob : Date&#10;- gender : char&#10;- phone : int&#10;- address : Address&#10;- customerType : Customer&#10;- savingsBankAccount : SavingsBankAccount" style="text;strokeColor=none;fillColor=none;align=left;verticalAlign=top;spacingLeft=4;spacingRight=4;overflow=hidden;rotatable=0;points=[[0,0.5],[1,0.5]];portConstraint=eastwest;" parent="BdQd1i3lk0m6pX4wLUbh-5" vertex="1">
                    <mxGeometry y="26" width="290" height="144" as="geometry"/>
                </mxCell>
                <mxCell id="BdQd1i3lk0m6pX4wLUbh-7" value="" style="line;strokeWidth=1;fillColor=none;align=left;verticalAlign=middle;spacingTop=-1;spacingLeft=3;spacingRight=3;rotatable=0;labelPosition=right;points=[];portConstraint=eastwest;" parent="BdQd1i3lk0m6pX4wLUbh-5" vertex="1">
                    <mxGeometry y="170" width="290" height="8" as="geometry"/>
                </mxCell>
                <mxCell id="BdQd1i3lk0m6pX4wLUbh-8" value="+ getters/setters&#10;- setCustomerID() : void&#10;+ acceptCustomerDetails() : void&#10;+ displayCustomerDetails() : void&#10;- generateCustomerID : int&#10;- calculateAge() : int&#10;- setCustomerType() : voidÂ " style="text;strokeColor=none;fillColor=none;align=left;verticalAlign=top;spacingLeft=4;spacingRight=4;overflow=hidden;rotatable=0;points=[[0,0.5],[1,0.5]];portConstraint=eastwest;" parent="BdQd1i3lk0m6pX4wLUbh-5" vertex="1">
                    <mxGeometry y="178" width="290" height="122" as="geometry"/>
                </mxCell>
                <mxCell id="BdQd1i3lk0m6pX4wLUbh-9" value="Address" style="swimlane;fontStyle=1;align=center;verticalAlign=top;childLayout=stackLayout;horizontal=1;startSize=26;horizontalStack=0;resizeParent=1;resizeParentMax=0;resizeLast=0;collapsible=1;marginBottom=0;" parent="1" vertex="1">
                    <mxGeometry x="20" y="20" width="160" height="120" as="geometry"/>
                </mxCell>
                <mxCell id="BdQd1i3lk0m6pX4wLUbh-10" value="- houseNo : int&#10;- villageName : String&#10;- pincode : int" style="text;strokeColor=none;fillColor=none;align=left;verticalAlign=top;spacingLeft=4;spacingRight=4;overflow=hidden;rotatable=0;points=[[0,0.5],[1,0.5]];portConstraint=eastwest;" parent="BdQd1i3lk0m6pX4wLUbh-9" vertex="1">
                    <mxGeometry y="26" width="160" height="54" as="geometry"/>
                </mxCell>
                <mxCell id="BdQd1i3lk0m6pX4wLUbh-11" value="" style="line;strokeWidth=1;fillColor=none;align=left;verticalAlign=middle;spacingTop=-1;spacingLeft=3;spacingRight=3;rotatable=0;labelPosition=right;points=[];portConstraint=eastwest;" parent="BdQd1i3lk0m6pX4wLUbh-9" vertex="1">
                    <mxGeometry y="80" width="160" height="8" as="geometry"/>
                </mxCell>
                <mxCell id="BdQd1i3lk0m6pX4wLUbh-12" value="+ getters/setters" style="text;strokeColor=none;fillColor=none;align=left;verticalAlign=top;spacingLeft=4;spacingRight=4;overflow=hidden;rotatable=0;points=[[0,0.5],[1,0.5]];portConstraint=eastwest;" parent="BdQd1i3lk0m6pX4wLUbh-9" vertex="1">
                    <mxGeometry y="88" width="160" height="32" as="geometry"/>
                </mxCell>
                <mxCell id="BdQd1i3lk0m6pX4wLUbh-13" value="1" style="endArrow=open;html=1;endSize=12;startArrow=diamondThin;startSize=14;startFill=1;edgeStyle=orthogonalEdgeStyle;align=left;verticalAlign=bottom;entryX=0.007;entryY=0.646;entryDx=0;entryDy=0;entryPerimeter=0;" parent="1" source="BdQd1i3lk0m6pX4wLUbh-10" target="BdQd1i3lk0m6pX4wLUbh-6" edge="1">
                    <mxGeometry x="-1" y="3" relative="1" as="geometry">
                        <mxPoint x="180" y="73" as="sourcePoint"/>
                        <mxPoint x="300" y="160" as="targetPoint"/>
                        <Array as="points">
                            <mxPoint x="225" y="73"/>
                            <mxPoint x="225" y="160"/>
                        </Array>
                    </mxGeometry>
                </mxCell>
                <mxCell id="BdQd1i3lk0m6pX4wLUbh-17" value="SavingsBankAccount" style="swimlane;fontStyle=1;align=center;verticalAlign=top;childLayout=stackLayout;horizontal=1;startSize=26;horizontalStack=0;resizeParent=1;resizeParentMax=0;resizeLast=0;collapsible=1;marginBottom=0;" parent="1" vertex="1">
                    <mxGeometry x="10" y="270" width="220" height="240" as="geometry"/>
                </mxCell>
                <mxCell id="BdQd1i3lk0m6pX4wLUbh-18" value="- accNo : int&#10;- totalBalance : double&#10;- availableBanlance : double&#10;- accOpningDate : Date&#10;- status : AccountType&#10;- transactions : Transaction[]" style="text;strokeColor=none;fillColor=none;align=left;verticalAlign=top;spacingLeft=4;spacingRight=4;overflow=hidden;rotatable=0;points=[[0,0.5],[1,0.5]];portConstraint=eastwest;" parent="BdQd1i3lk0m6pX4wLUbh-17" vertex="1">
                    <mxGeometry y="26" width="220" height="104" as="geometry"/>
                </mxCell>
                <mxCell id="BdQd1i3lk0m6pX4wLUbh-19" value="" style="line;strokeWidth=1;fillColor=none;align=left;verticalAlign=middle;spacingTop=-1;spacingLeft=3;spacingRight=3;rotatable=0;labelPosition=right;points=[];portConstraint=eastwest;" parent="BdQd1i3lk0m6pX4wLUbh-17" vertex="1">
                    <mxGeometry y="130" width="220" height="8" as="geometry"/>
                </mxCell>
                <mxCell id="BdQd1i3lk0m6pX4wLUbh-20" value="+ getteres/setters&#10;+ balanceInquiry() : double&#10;+ withdraw(amount double) : boolean&#10;+ deposite(amount double) : boolean&#10;+ isAccountActive() : boolean&#10;+ getLatestTransactions() : Transaction" style="text;strokeColor=none;fillColor=none;align=left;verticalAlign=top;spacingLeft=4;spacingRight=4;overflow=hidden;rotatable=0;points=[[0,0.5],[1,0.5]];portConstraint=eastwest;" parent="BdQd1i3lk0m6pX4wLUbh-17" vertex="1">
                    <mxGeometry y="138" width="220" height="102" as="geometry"/>
                </mxCell>
                <mxCell id="BdQd1i3lk0m6pX4wLUbh-22" value="1" style="endArrow=open;html=1;endSize=12;startArrow=diamondThin;startSize=14;startFill=1;edgeStyle=orthogonalEdgeStyle;align=left;verticalAlign=bottom;" parent="1" target="BdQd1i3lk0m6pX4wLUbh-6" edge="1">
                    <mxGeometry x="-1" y="3" relative="1" as="geometry">
                        <mxPoint x="230" y="310" as="sourcePoint"/>
                        <mxPoint x="310" y="230" as="targetPoint"/>
                        <Array as="points">
                            <mxPoint x="270" y="310"/>
                            <mxPoint x="270" y="190"/>
                        </Array>
                    </mxGeometry>
                </mxCell>
                <mxCell id="BdQd1i3lk0m6pX4wLUbh-23" value="Transactions" style="swimlane;fontStyle=1;align=center;verticalAlign=top;childLayout=stackLayout;horizontal=1;startSize=26;horizontalStack=0;resizeParent=1;resizeParentMax=0;resizeLast=0;collapsible=1;marginBottom=0;" parent="1" vertex="1">
                    <mxGeometry x="460" y="360" width="220" height="180" as="geometry"/>
                </mxCell>
                <mxCell id="BdQd1i3lk0m6pX4wLUbh-24" value="- transactionID : int&#10;- transactionDate : Date&#10;- amount : double&#10;- transactionType : TransactionType" style="text;strokeColor=none;fillColor=none;align=left;verticalAlign=top;spacingLeft=4;spacingRight=4;overflow=hidden;rotatable=0;points=[[0,0.5],[1,0.5]];portConstraint=eastwest;" parent="BdQd1i3lk0m6pX4wLUbh-23" vertex="1">
                    <mxGeometry y="26" width="220" height="74" as="geometry"/>
                </mxCell>
                <mxCell id="BdQd1i3lk0m6pX4wLUbh-25" value="" style="line;strokeWidth=1;fillColor=none;align=left;verticalAlign=middle;spacingTop=-1;spacingLeft=3;spacingRight=3;rotatable=0;labelPosition=right;points=[];portConstraint=eastwest;" parent="BdQd1i3lk0m6pX4wLUbh-23" vertex="1">
                    <mxGeometry y="100" width="220" height="8" as="geometry"/>
                </mxCell>
                <mxCell id="BdQd1i3lk0m6pX4wLUbh-26" value="+ getters/setters&#10;+ displayTransactions() : void&#10;+ displayTransactions(date) : void" style="text;strokeColor=none;fillColor=none;align=left;verticalAlign=top;spacingLeft=4;spacingRight=4;overflow=hidden;rotatable=0;points=[[0,0.5],[1,0.5]];portConstraint=eastwest;" parent="BdQd1i3lk0m6pX4wLUbh-23" vertex="1">
                    <mxGeometry y="108" width="220" height="72" as="geometry"/>
                </mxCell>
                <mxCell id="BdQd1i3lk0m6pX4wLUbh-27" value="1" style="endArrow=open;html=1;endSize=12;startArrow=diamondThin;startSize=14;startFill=1;edgeStyle=orthogonalEdgeStyle;align=left;verticalAlign=bottom;entryX=-0.014;entryY=0.061;entryDx=0;entryDy=0;entryPerimeter=0;" parent="1" target="BdQd1i3lk0m6pX4wLUbh-23" edge="1">
                    <mxGeometry x="-1" y="3" relative="1" as="geometry">
                        <mxPoint x="230" y="370" as="sourcePoint"/>
                        <mxPoint x="390" y="370" as="targetPoint"/>
                        <Array as="points">
                            <mxPoint x="457" y="370"/>
                        </Array>
                    </mxGeometry>
                </mxCell>
            </root>
        </mxGraphModel>
    </diagram>
</mxfile>